<svg width="24" height="24" viewBox="0 0 24 24" fill="none" xmlns="http://www.w3.org/2000/svg">
<path d="M20.3053 5.38983C21.2413 5.38983 22.0002 4.63099 22.0002 3.69492C22.0002 2.75884 21.2413 2 20.3053 2C19.3692 2 18.6104 2.75884 18.6104 3.69492C18.6104 4.63099 19.3692 5.38983 20.3053 5.38983Z" stroke="black" stroke-width="2" stroke-miterlimit="10" stroke-linecap="round" stroke-linejoin="round"/>
<path d="M12.0001 5.38983C12.9362 5.38983 13.695 4.63099 13.695 3.69492C13.695 2.75884 12.9362 2 12.0001 2C11.064 2 10.3052 2.75884 10.3052 3.69492C10.3052 4.63099 11.064 5.38983 12.0001 5.38983Z" stroke="black" stroke-width="2" stroke-miterlimit="10" stroke-linecap="round" stroke-linejoin="round"/>
<path d="M3.69492 5.38983C4.63099 5.38983 5.38983 4.63099 5.38983 3.69492C5.38983 2.75884 4.63099 2 3.69492 2C2.75884 2 2 2.75884 2 3.69492C2 4.63099 2.75884 5.38983 3.69492 5.38983Z" stroke="black" stroke-width="2" stroke-miterlimit="10" stroke-linecap="round" stroke-linejoin="round"/>
<path d="M3.69492 21.9999C4.63099 21.9999 5.38983 21.2411 5.38983 20.305C5.38983 19.3689 4.63099 18.6101 3.69492 18.6101C2.75884 18.6101 2 19.3689 2 20.305C2 21.2411 2.75884 21.9999 3.69492 21.9999Z" stroke="black" stroke-width="2" stroke-miterlimit="10" stroke-linecap="round" stroke-linejoin="round"/>
<path d="M12.0001 21.9999C12.9362 21.9999 13.695 21.2411 13.695 20.305C13.695 19.3689 12.9362 18.6101 12.0001 18.6101C11.064 18.6101 10.3052 19.3689 10.3052 20.305C10.3052 21.2411 11.064 21.9999 12.0001 21.9999Z" stroke="black" stroke-width="2" stroke-miterlimit="10" stroke-linecap="round" stroke-linejoin="round"/>
<path d="M20.305 5.38989V10.1357C20.305 11.0717 19.5461 11.8306 18.6101 11.8306H3.69482V18.6102" stroke="black" stroke-width="2" stroke-miterlimit="10" stroke-linecap="round" stroke-linejoin="round"/>
<path d="M3.69482 11.8306V5.38989" stroke="black" stroke-width="2" stroke-miterlimit="10" stroke-linecap="round" stroke-linejoin="round"/>
<path d="M12 5.38989V18.6102" stroke="black" stroke-width="2" stroke-miterlimit="10" stroke-linecap="round" stroke-linejoin="round"/>
<path d="M20.3053 21.9999C21.2413 21.9999 22.0002 21.2411 22.0002 20.305C22.0002 19.3689 21.2413 18.6101 20.3053 18.6101C19.3692 18.6101 18.6104 19.3689 18.6104 20.305C18.6104 21.2411 19.3692 21.9999 20.3053 21.9999Z" stroke="black" stroke-width="2" stroke-miterlimit="10" stroke-linecap="round" stroke-linejoin="round"/>
<path d="M20.3052 15.2205V18.6103" stroke="black" stroke-width="2" stroke-miterlimit="10" stroke-linecap="round" stroke-linejoin="round"/>
</svg>
